#!OML:ASF F:\VICON\USERDATA\INSTALL\rory3\rory3.ASF
:FULLY-SPECIFIED
:DEGREES
283
root 0.328248 14.4325 5.74099 22.7322 -1.31309 -4.07355
lowerback -0.739409 -1.9109 1.53685
upperback -6.15221 -2.41548 2.50878
thorax -5.91746 -1.21505 1.85474
lowerneck -19.8887 -2.47477 -4.73912
upperneck 12.3784 -2.65619 3.6309
head 7.14966 -1.16106 1.64503
rclavicle 1.81639e-014 3.67752e-015
rhumerus -40.5081 -0.939669 -80.9179
rradius 61.3286
rwrist 9.70282
rhand -27.7946 -50.5063
rfingers 7.12502
rthumb -1.18756 -80.4827
lclavicle 1.81639e-014 3.67752e-015
lhumerus -37.5328 -14.9231 78.4722
lradius 52.695
lwrist -6.65828
lhand -31.1675 -43.8036
lfingers 7.12502
lthumb -4.44488 -13.8703
rfemur -61.1367 1.59141 19.4691
rtibia 81.7432
rfoot -31.1517 -18.3342
rtoes -20.3264
lfemur -61.4608 7.73739 -10.2069
ltibia 84.5321
lfoot -32.6521 4.55894
ltoes -28.5096
284
root 0.326117 14.3538 5.71893 22.7045 -1.50213 -4.09585
lowerback -0.284199 -1.79945 1.38187
upperback -6.09547 -2.26126 2.43984
thorax -6.1175 -1.13083 1.87894
lowerneck -19.5688 -2.56409 -4.65914
upperneck 11.7374 -2.79208 3.59238
head 6.89112 -1.22862 1.60414
rclavicle 7.14382e-015 -2.41523e-014
rhumerus -40.253 -0.932862 -80.7167
rradius 61.9241
rwrist 9.47181
rhand -28.9876 -48.7437
rfingers 7.12502
rthumb -2.33977 -78.7106
lclavicle 7.14382e-015 -2.41523e-014
lhumerus -37.1259 -14.6574 78.2405
lradius 54.0182
lwrist -6.13154
lhand -31.3729 -43.436
lfingers 7.12502
lthumb -4.64323 -13.5069
rfemur -61.9094 2.16433 19.3381
rtibia 83.0808
rfoot -31.6787 -18.7231
rtoes -19.7858
lfemur -62.1244 7.62208 -10.1073
ltibia 85.7769
lfoot -32.7363 5.01228
ltoes -29.8623
285
root 0.326759 14.3043 5.71572 22.7845 -1.60824 -4.37948
lowerback -0.270393 -1.69993 1.57033
upperback -5.98607 -2.12335 2.44164
thorax -6.01914 -1.07192 1.76573
lowerneck -19.239 -2.62684 -4.642
upperneck 11.2106 -2.89029 3.63059
head 6.6701 -1.27467 1.6041
rclavicle 9.41742e-015 -1.31198e-014
rhumerus -39.8474 -0.662237 -80.625
rradius 62.53
rwrist 9.2883
rhand -28.866 -49.6421
rfingers 7.12502
rthumb -2.2223 -79.6103
lclavicle 9.41742e-015 -1.31198e-014
lhumerus -36.6725 -14.6676 78.0753
lradius 55.25
lwrist -5.10716
lhand -31.5416 -42.8807
lfingers 7.12502
lthumb -4.80611 -12.9552
rfemur -62.3865 2.62379 19.5931
rtibia 83.9394
rfoot -31.9612 -19.2224
rtoes -19.5762
lfemur -62.4543 7.60683 -9.78921
ltibia 86.5304
lfoot -33.1519 5.06258
ltoes -29.7009
286
root 0.298269 14.2036 5.60032 22.7396 -2.67989 -4.39291
lowerback 1.369 -1.36928 0.385768
upperback -6.04441 -1.68503 2.47316
thorax -6.99916 -0.781906 2.49473
lowerneck -19.2901 -2.59705 -4.60781
upperneck 10.9719 -2.85304 3.64297
head 6.59906 -1.25351 1.60644
rclavicle 2.68359e-014 -1.21259e-014
rhumerus -39.366 0.0888743 -80.6728
rradius 63.3781
rwrist 8.76773
rhand -28.8017 -51.8198
rfingers 7.12502
rthumb -2.16024 -81.7886
lclavicle 2.68359e-014 -1.21259e-014
lhumerus -35.9398 -14.7977 77.903
lradius 56.3331
lwrist -3.80026
lhand -31.5981 -42.6312
lfingers 7.12502
lthumb -4.86066 -12.707
rfemur -64.0179 4.06616 19.3662
rtibia 84.8751
rfoot -30.9389 -19.4949
rtoes -19.323
lfemur -63.2558 8.62751 -9.95432
ltibia 87.102
lfoot -32.9914 4.65344
ltoes -28.4067
287
root 0.286647 14.174 5.56668 22.7172 -3.39383 -4.24589
lowerback 1.8805 -1.14504 -0.405075
upperback -5.97133 -1.4237 2.41316
thorax -7.21121 -0.606524 2.86982
lowerneck -19.4512 -2.56115 -4.64453
upperneck 11.0146 -2.8019 3.72703
head 6.63888 -1.22131 1.64465
rclavicle 1.89591e-014 -2.06736e-014
rhumerus -39.1247 1.15226 -80.7768
rradius 64.4115
rwrist 7.74214
rhand -28.6419 -52.4835
rfingers 7.12502
rthumb -2.00582 -82.4538
lclavicle 1.89591e-014 -2.06736e-014
lhumerus -35.3 -15.1335 77.8622
lradius 57.4128
lwrist -2.41721
lhand -31.8087 -42.7013
lfingers 7.12502
lthumb -5.06405 -12.7818
rfemur -64.5397 4.78568 19.0389
rtibia 85.032
rfoot -30.5663 -19.6456
rtoes -18.6967
lfemur -63.1849 8.95885 -10.3266
ltibia 86.9183
lfoot -33.1927 5.60318
ltoes -26.9797
288
root 0.298057 14.2505 5.62324 22.7075 -3.2207 -4.00852
lowerback 1.32664 -1.16852 -0.307596
upperback -5.86965 -1.46488 2.25966
thorax -6.7838 -0.64319 2.63761
lowerneck -19.5156 -2.61914 -4.73989
upperneck 11.3002 -2.87285 3.81472
head 6.74821 -1.25118 1.68037
rclavicle 1.08089e-014 -1.49089e-014
rhumerus -39.1625 1.90672 -80.7309
rradius 65.3253
rwrist 7.40803
rhand -28.4781 -52.6493
rfingers 7.12502
rthumb -1.84762 -82.621
lclavicle 1.08089e-014 -1.49089e-014
lhumerus -34.8597 -15.9723 78.0623
lradius 58.2833
lwrist -1.38658
lhand -32.3394 -42.9644
lfingers 7.12502
lthumb -5.57645 -13.0578
rfemur -63.5668 4.43409 18.919
rtibia 84.3538
rfoot -30.7865 -20.0827
rtoes -18.7032
lfemur -62.0833 8.20044 -10.6087
ltibia 85.9164
lfoot -33.6726 7.26053
ltoes -26.1959
289
root 0.343425 14.3516 5.76404 22.7244 -2.34153 -3.67961
lowerback -0.536426 -1.38704 0.652668
upperback -5.62073 -1.76273 2.00931
thorax -5.46823 -0.860231 1.79233
lowerneck -19.349 -2.68345 -4.79132
upperneck 11.5414 -2.94413 3.71831
head 6.80176 -1.29845 1.65011
rclavicle -1.1281e-014 1.61016e-014
rhumerus -39.3892 2.44132 -80.5335
rradius 66.3374
rwrist 7.79561
rhand -27.1099 -54.4716
rfingers 7.12502
rthumb -0.526204 -84.4507
lclavicle -1.1281e-014 1.61016e-014
lhumerus -34.5617 -17.0036 78.419
lradius 59.0464
lwrist -1.05259
lhand -32.8998 -43.06
lfingers 7.12502
lthumb -6.11743 -13.1683
rfemur -61.7772 2.97225 18.8233
rtibia 83.309
rfoot -31.4548 -20.3209
rtoes -19.5131
lfemur -60.4368 6.5415 -10.9292
ltibia 84.5862
lfoot -34.2319 9.19249
ltoes -26.1
290
root 0.365534 14.4127 5.78178 22.82 -2.02792 -3.83607
lowerback -0.606051 -1.40026 1.16621
upperback -5.79307 -1.76384 2.04072
thorax -5.62597 -0.884181 1.54048
lowerneck -19.0686 -2.66318 -4.97579
upperneck 11.7391 -2.89183 3.75158
head 6.82108 -1.28202 1.69873
rclavicle -1.12562e-014 2.38542e-015
rhumerus -39.5949 3.07199 -80.2492
rradius 67.1737
rwrist 8.65788
rhand -25.5099 -54.8853
rfingers 7.12502
rthumb 1.01907 -84.8626
lclavicle -1.12562e-014 2.38542e-015
lhumerus -34.3779 -17.8572 78.8291
lradius 59.759
lwrist -1.21846
lhand -33.0575 -42.7714
lfingers 7.12502
lthumb -6.26968 -12.8842
rfemur -61.2688 2.71613 19.0229
rtibia 82.3201
rfoot -31.2378 -20.0703
rtoes -19.3097
lfemur -59.8793 6.02027 -10.8008
ltibia 83.4574
lfoot -34.0086 10.0248
ltoes -25.6044
291
root 0.389708 14.4977 5.81656 22.8506 -1.72286 -3.97299
lowerback -0.769582 -1.42965 1.6607
upperback -5.9846 -1.78889 2.08216
thorax -5.75017 -0.920328 1.30871
lowerneck -18.7205 -2.64753 -5.37673
upperneck 12.047 -2.84221 4.06061
head 6.8725 -1.25333 1.87298
rclavicle -1.08338e-014 1.92821e-014
rhumerus -40.0301 3.83914 -80.0246
rradius 68.1792
rwrist 9.44775
rhand -26.5319 -50.7862
rfingers 7.12502
rthumb 0.0319938 -80.7659
lclavicle -1.08338e-014 1.92821e-014
lhumerus -34.329 -18.6146 79.2966
lradius 60.3504
lwrist -1.85779
lhand -33.0472 -42.7944
lfingers 7.12502
lthumb -6.25979 -12.9069
rfemur -60.4956 2.471 19.1551
rtibia 81.1729
rfoot -30.8508 -19.8711
rtoes -19.4497
lfemur -59.1405 5.45544 -10.6893
ltibia 82.264
lfoot -33.838 10.4261
ltoes -24.7126
292
root 0.4076 14.5938 5.85667 23.0033 -1.41276 -4.3206
lowerback -1.19572 -1.3708 2.32055
upperback -6.21683 -1.70013 2.13651
thorax -5.77389 -0.909093 0.986854
lowerneck -18.0957 -2.75423 -5.65203
upperneck 12.2417 -2.97626 4.18688
head 6.84509 -1.32716 1.94766
rclavicle 1.98909e-014 -1.15295e-014
rhumerus -40.8296 4.45758 -79.8816
rradius 69.4884
rwrist 10.107
rhand -25.5295 -53.4906
rfingers 7.12502
rthumb 1.00022 -83.468
lclavicle 1.98909e-014 -1.15295e-014
lhumerus -34.4159 -19.5025 79.831
lradius 61.0184
lwrist -2.90493
lhand -32.7769 -42.9021
lfingers 7.12502
lthumb -5.99879 -13.007
rfemur -59.7961 2.32456 19.5278
rtibia 79.9306
rfoot -30.0365 -19.847
rtoes -20.2307
lfemur -58.5528 5.03146 -10.2858
ltibia 81.0895
lfoot -33.4945 10.4915
ltoes -24.1887
293
root 0.415236 14.6937 5.88519 23.3546 -1.08758 -4.47274
lowerback -1.76822 -1.32832 2.61093
upperback -6.4275 -1.65268 2.16932
thorax -5.67905 -0.900438 0.846077
lowerneck -17.8422 -2.88426 -5.71033
upperneck 12.4752 -3.14876 4.1295
head 6.88757 -1.42159 1.92088
rclavicle 4.99446e-015 -1.91827e-014
rhumerus -41.398 5.00435 -79.7525
rradius 70.6532
rwrist 10.8094
rhand -26.3561 -51.7926
rfingers 7.12502
rthumb 0.201804 -81.7723
lclavicle 4.99446e-015 -1.91827e-014
lhumerus -34.39 -20.3999 80.3158
lradius 61.7633
lwrist -4.10213
lhand -32.1994 -42.9406
lfingers 7.12502
lthumb -5.44126 -13.0305
rfemur -59.3869 2.09998 19.7287
rtibia 78.64
rfoot -29.2546 -19.4217
rtoes -20.3422
lfemur -58.2974 4.62043 -10.0229
ltibia 79.854
lfoot -32.8072 10.5772
ltoes -24.4706
